. 
 
http://www.torrenting.com          :     Once & For all ;)


               www . Torrenting . Com 

(((((((((((((= Enjoy No RAR releases =))))))))))))))))))))


...................................NFO:....................................

.[IMG]http://lookpic.com/O/i2/1715/5vNv9DMF.jpeg[/IMG]

[IMG]http://lookpic.com/O/i2/714/uKIWpNKz.png[/IMG]
 
http://www.imdb.com/title/tt1392170/

Sources: Video 26k/lUM1X .... THX
         Audio DTRG .... THX 

Format                           : AVI
Format/Info                      : Audio Video Interleave
File size                        : 1.50 GiB
Duration                         : 2h 7mn
Overall bit rate                 : 1 688 Kbps
Writing library                  : VirtualDub build 33848/release

Video
ID                               : 0
Format                           : MPEG-4 Visual
Format profile                   : Advanced Simple@L5
Format settings, BVOP            : Yes
Format settings, QPel            : No
Format settings, GMC             : No warppoints
Format settings, Matrix          : Default (H.263)
Muxing mode                      : Packed bitstream
Codec ID                         : XVID
Codec ID/Hint                    : XviD
Duration                         : 2h 7mn
Bit rate                         : 1 486 Kbps
Width                            : 720 pixels
Height                           : 304 pixels
Display aspect ratio             : 2.35:1
Frame rate                       : 25.000 fps
Color space                      : YUV
Chroma subsampling               : 4:2:0
Bit depth                        : 8 bits
Scan type                        : Progressive
Bits/(Pixel*Frame)               : 0.272
Stream size                      : 1.32 GiB (88%)
Writing library                  : XviD 1.2.1 (UTC 2008-12-04)

Audio
ID                               : 1
Format                           : MPEG Audio
Format version                   : Version 1
Format profile                   : Layer 3
Mode                             : Joint stereo
Mode extension                   : MS Stereo
Codec ID                         : 55
Codec ID/Hint                    : MP3
Duration                         : 2h 7mn
Bit rate mode                    : Constant
Bit rate                         : 192 Kbps
Channel(s)                       : 2 channels
Sampling rate                    : 48.0 KHz
Stream size                      : 175 MiB (11%)
Alignment                        : Split accross interleaves
Interleave, duration             : 40 ms (1.00 video frame)
Interleave, preload duration     : 500 ms

Workdone:
First of we used 26k's encode since he used the VOBS, so thx for that :). For filter we adjusted brightness, RGB, Saturation, Intensity, Levels, the perspective on the upper left corner 2click to the left and a smoother.

Audio:
Untouched.. but thx again DTRG for the line :)

[IMG]http://lookpic.com/O/i2/719/NG0CFxn.png[/IMG]

[IMG]http://lookpic.com/O/i2/1170/uOakdUO1.jpeg[/IMG]
[IMG]http://lookpic.com/O/i2/1625/DU5uzTTJ.jpeg[/IMG]
[IMG]http://lookpic.com/O/i2/1149/5axylLq.jpeg[/IMG]
[IMG]http://lookpic.com/O/i2/774/gEl2Xka3.jpeg[/IMG]
[IMG]http://lookpic.com/O/i2/728/vd7uBcCf.jpeg[/IMG]
[IMG]http://lookpic.com/O/i2/1045/XlYMTyL.jpeg[/IMG]